HIERARCHY
ROOT pelvis
{
  OFFSET 0 100 0
  CHANNELS 6 Xposition Yposition Zposition Zrotation Xrotation Yrotation
  JOINT pelvis_right_femur
  {
    OFFSET -10.78128 -3.44521 -0.5502486
    CHANNELS 3 Zrotation Xrotation Yrotation
    JOINT right_femur_tibia
    {
      OFFSET -0.8047443 -44.0398 -0.1307829
      CHANNELS 3 Zrotation Xrotation Yrotation
      JOINT right_tibia_foot
      {
        OFFSET 3.006224 -47.83518 -5
        CHANNELS 3 Zrotation Xrotation Yrotation
        End Site
        {
          OFFSET 0 -5 15
        }
      }
    }
  }
  JOINT pelvis_left_femur
  {
    OFFSET 10.78128 -3.44521 -0.5502486
    CHANNELS 3 Zrotation Xrotation Yrotation
    JOINT left_femur_tibia
    {
      OFFSET 0.8047443 -44.0398 -0.1307829
      CHANNELS 3 Zrotation Xrotation Yrotation
      JOINT left_tibia_foot
      {
        OFFSET -4.370144 -48.10324 -4.275266
        CHANNELS 3 Zrotation Xrotation Yrotation
        End Site
        {
          OFFSET 0 -5 15
        }
      }
    }
  }
  JOINT pelvis_spine1
  {
    OFFSET 0 6.468898 -3.129235
    CHANNELS 3 Zrotation Xrotation Yrotation
    JOINT spine1
    {
      OFFSET 0 23.15396 4.99043
      CHANNELS 3 Zrotation Xrotation Yrotation
      JOINT spine2
      {
        OFFSET 0 20.79997 -5.064912
        CHANNELS 3 Zrotation Xrotation Yrotation
        JOINT neck
        {
          OFFSET 0 14.38658 9.616178
          CHANNELS 3 Zrotation Xrotation Yrotation
          End Site
          {
            OFFSET 0 20 0
          }
        }
      }
      JOINT right_manubrium
      {
        OFFSET -5.722621 16.35077 3.967754
        CHANNELS 3 Zrotation Xrotation Yrotation
        JOINT right_clavicle
        {
          OFFSET -13.16364 1.694482 -4.693211
          CHANNELS 3 Zrotation Xrotation Yrotation
          JOINT right_humerus
          {
            OFFSET -28.5034 -0.3100689 -2.792744
            CHANNELS 3 Zrotation Xrotation Yrotation
            JOINT right_radius
            {
              OFFSET -25.15693 0.02248979 -1.271978
              CHANNELS 3 Zrotation Xrotation Yrotation
              End Site
              {
                OFFSET -15 0 0
              }
            }
          }
        }
      }
      JOINT left_manubrium
      {
        OFFSET 5.722621 16.35077 3.967754
        CHANNELS 3 Zrotation Xrotation Yrotation
        JOINT left_clavicle
        {
          OFFSET 13.16364 1.694482 -4.693211
          CHANNELS 3 Zrotation Xrotation Yrotation
          JOINT left_humerus
          {
            OFFSET 29.39168 -1.063119 -2.237045
            CHANNELS 3 Zrotation Xrotation Yrotation
            JOINT left_radius
            {
              OFFSET 24.59957 -0.9528479 0.9047498
              CHANNELS 3 Zrotation Xrotation Yrotation
              End Site
              {
                OFFSET 15 -0 -0
              }
            }
          }
        }
      }
    }
  }
}
MOTION
Frames: 15
Frame Time: 0.0416666666667
36.15292 101.1726 248.5616 2.015527 -8.418693 -4.54926 -0.7150823 24.75179 8.764802 -0 15.08784 -0 7.695205 -15.98539 0.9056053 -0.01256856 -28.0403 -5.735605 -0 25.80491 -0 -7.9824 -5.376493 19.98025 -1.087616 -0.5492814 9.805241 -2.070782 9.823202 -1.96754 2.448254 21.70955 5.031619 1.702912 -14.7065 7.071863 1.007535 -22.26181 11.5047 79.40854 21.84835 -3.371447 -0 0 28.47331 -25.90291 13.93806 13.99642 4.770598 -13.68264 -2.57681 -94.04356 21.27188 26.73426 0 0 -10.93892 -3.01575 6.825887 16.27596
37.05243 100.5169 255.8133 2.227714 -8.144993 -5.047704 -1.868257 25.37863 8.628116 -0 20.65489 -0 8.597682 -14.10899 0.7854709 -1.556043 -26.28017 -7.173357 -0 25.11221 -0 -8.025286 -5.419899 19.38212 -1.461233 -1.302995 9.807307 -2.223808 9.35504 -1.957405 2.606693 21.7252 4.994123 1.594164 -14.71474 7.318836 0.900983 -21.91659 11.06266 79.73443 21.5631 -3.294886 -0 0 28.29795 -25.88736 13.75444 13.96407 4.496854 -12.76309 -2.609934 -94.16122 21.5946 27.14599 0 0 -9.56746 -3.354541 6.813185 16.86592
37.93251 100.4603 263.3724 2.57352 -8.158422 -5.241643 -3.101469 24.95765 8.192638 -0 27.58768 -0 9.286677 -11.44778 0.1158894 -3.178613 -23.31001 -8.519316 -0 25.70357 -0 -8.048806 -5.576587 18.82031 -2.011506 -2.087559 9.729824 -2.264984 9.053472 -1.969289 2.742953 21.87932 4.979011 1.485551 -14.64826 7.578117 1.042717 -21.0487 10.64162 80.46546 21.5239 -4.071552 -0 0 27.02201 -25.66073 13.67384 13.65325 4.28202 -12.1466 -2.673749 -93.88917 22.00874 26.82708 0 0 -8.780685 -3.551272 6.890791 17.23258
38.74282 101.0832 270.8094 2.911878 -8.510564 -4.913409 -3.920116 22.93074 7.378668 -0 35.83474 -0 9.661868 -8.745735 -1.105471 -4.740508 -19.2636 -9.614156 -0 26.51867 -0 -7.906877 -6.340724 18.239 -2.555379 -2.470086 9.355285 -2.234583 8.923516 -2.044892 2.79961 22.1876 5.000812 1.333956 -14.51253 7.831661 1.429264 -19.88429 10.34767 81.52215 21.74023 -5.465673 -0 0 24.83837 -25.19537 13.69613 13.08795 4.094085 -12.03648 -2.787766 -93.06431 22.52438 25.59944 0 0 -8.707353 -3.530556 7.082297 17.27703
39.493 102.2275 277.8359 3.156396 -9.134565 -4.07529 -3.985885 18.88102 6.319696 -0 44.54316 -0 9.709391 -6.698909 -2.74379 -6.04804 -14.15221 -10.40455 -0 26.84453 -0 -7.590614 -7.707631 17.61089 -2.922184 -2.276939 8.55267 -2.166277 8.915966 -2.25672 2.714984 22.61879 5.099105 1.101812 -14.29587 8.078918 1.953862 -18.67109 10.20944 82.81944 22.1768 -7.187916 -0 0 22.17059 -24.50645 13.79646 12.3746 3.914448 -12.44367 -2.976322 -91.68194 23.10135 23.43912 0 0 -9.308864 -3.263422 7.385797 16.99379
40.13278 103.7387 284.3223 3.097104 -9.89071 -3.148586 -3.552804 12.88773 5.115315 -0 51.40769 -0 9.452313 -5.991121 -4.436563 -6.731216 -8.38434 -10.84713 -0 26.15985 -0 -7.286572 -9.206072 16.97942 -2.997003 -1.610264 7.371486 -1.991912 8.92889 -2.645273 2.498055 23.12164 5.288985 0.7994354 -13.99079 8.338371 2.452288 -17.58461 10.19387 84.24363 22.74619 -9.002778 -0 0 19.49484 -23.65532 13.936 11.6451 3.80423 -13.21313 -3.268477 -89.89929 23.66143 20.49316 0 0 -10.47024 -2.776625 7.784413 16.43369
40.67719 105.3972 290.2862 2.831558 -10.41613 -2.194124 -2.825123 5.775497 3.960711 -0 54.56861 -0 8.889603 -6.164701 -5.742387 -6.855447 -2.508363 -11.07484 -0 24.48108 -0 -7.136035 -10.50774 16.29433 -2.875221 -0.8573906 5.924654 -1.699765 8.891976 -3.290734 2.304178 23.66434 5.492521 0.5129384 -13.60212 8.634521 2.663123 -16.56966 10.09871 85.81493 23.30727 -10.87749 -0 0 17.21286 -22.72761 14.03564 11.00419 3.856753 -14.1423 -3.624259 -87.95032 24.13109 17.02323 0 0 -12.09368 -2.133707 8.259679 15.64988
41.15873 106.8029 295.859 2.585334 -10.47945 -1.093919 -2.135801 -1.338719 3.083656 -0 53.40115 -0 8.02589 -6.419856 -6.62961 -6.668229 2.895939 -11.26506 -0 22.09633 -0 -7.11814 -11.68006 15.4836 -2.739745 -0.3465358 4.444632 -1.328277 8.695094 -4.186082 2.233004 24.12969 5.638249 0.3011064 -13.19316 8.945731 2.418332 -15.53656 9.763556 87.41063 23.74205 -12.82788 -0 0 15.41813 -21.80978 14.03348 10.47229 4.170168 -15.09975 -3.959084 -85.97922 24.4775 13.26048 0 0 -14.14573 -1.393612 8.797119 14.65469
41.56129 107.6182 301.2202 2.474087 -10.12915 0.1645573 -1.808967 -7.858603 2.558391 -0 48.27479 -0 6.916714 -6.518714 -7.271251 -6.36905 7.64789 -11.47127 -0 19.53229 -0 -7.141529 -12.93096 14.57455 -2.752332 -0.07372086 3.127283 -0.9041339 8.338925 -5.216882 2.333127 24.45413 5.642607 0.1986819 -12.82329 9.194986 1.809775 -14.47237 9.223919 88.83445 24.01393 -14.80276 -0 0 13.94409 -20.93644 13.91274 9.978688 4.728019 -16.08826 -4.231426 -84.02659 24.70504 9.370738 0 0 -16.51998 -0.584654 9.384444 13.45106
41.87552 107.6984 306.6415 2.55778 -9.507822 1.463429 -1.946893 -13.47642 2.308075 -0 40.30127 -0 5.636179 -6.621407 -7.851085 -6.133714 11.83141 -11.64518 -0 17.38348 -0 -7.139628 -14.36665 13.63382 -2.979252 0.01063598 2.07619 -0.474717 7.891242 -6.212415 2.58136 24.60428 5.473491 0.201196 -12.56802 9.317261 1.037553 -13.34645 8.630874 90.00465 24.15029 -16.75939 -0 0 12.52965 -20.08568 13.69738 9.420459 5.446253 -17.09803 -4.409129 -82.16094 24.81697 5.542009 0 0 -19.0605 0.2897436 10.01137 12.07867
42.09511 107.0809 312.253 2.804397 -8.788697 2.584339 -2.402975 -18.07901 2.084844 -0 31.02159 -0 4.238624 -6.998535 -8.428501 -6.045985 15.51836 -11.69882 -0 16.1119 -0 -7.110526 -15.91933 12.73781 -3.356439 -0.01115914 1.379848 -0.08674359 7.426692 -6.952186 2.890861 24.59485 5.180911 0.2692221 -12.47614 9.302119 0.3332395 -12.16861 8.170287 90.94643 24.21118 -18.62827 -0 0 10.94811 -19.19443 13.43198 8.706433 6.204754 -18.10769 -4.454457 -80.47387 24.81537 1.969948 0 0 -21.56676 1.229055 10.65778 10.61623
42.16408 105.964 317.9139 3.05714 -8.131654 3.28402 -2.823031 -21.65856 1.625789 -0 22.11656 -0 2.765669 -7.836492 -8.951885 -6.042624 18.65753 -11.57988 -0 15.97171 -0 -7.109919 -17.35704 11.97693 -3.717545 0.02888579 1.072263 0.2528794 7.004462 -7.277909 3.164162 24.51017 4.851243 0.3558542 -12.52846 9.178977 -0.09467912 -11.05894 7.975634 91.69226 24.26624 -20.26302 -0 0 9.117856 -18.20138 13.15837 7.804105 6.865487 -19.11747 -4.355344 -79.03806 24.71686 -1.159463 0 0 -23.77911 2.206796 11.28817 9.165452
42.07134 104.6433 323.7124 3.143343 -7.580472 3.541721 -2.709595 -24.01095 1.070517 -0 15.29362 -0 1.308568 -8.964906 -9.425334 -5.960107 21.18041 -11.35337 -0 17.11541 -0 -7.218888 -18.31663 11.42701 -3.888107 0.1500211 0.9726291 0.5536219 6.649214 -7.278662 3.363151 24.42723 4.535822 0.4392903 -12.6948 8.987033 -0.1938563 -10.11408 8.034642 92.27432 24.3563 -21.53546 -0 0 7.175367 -17.10211 12.9017 6.785728 7.31838 -20.04521 -4.15029 -77.96848 24.57769 -3.593027 0 0 -25.40925 3.150973 11.86833 7.843664
41.81043 103.4023 329.8891 2.942415 -7.271566 3.726601 -1.891642 -24.9673 0.9224254 -0 12.12554 -0 0.01904679 -9.720496 -9.870087 -5.489471 23.13597 -11.22001 -0 19.78357 -0 -7.504714 -18.39995 11.13825 -3.728997 0.1054279 0.8751265 0.8031705 6.368536 -7.101621 3.540763 24.36836 4.245073 0.5391599 -12.97716 8.789227 -0.07441819 -9.25815 8.241738 92.78611 24.46234 -22.43326 -0 0 5.364137 -15.93449 12.66782 5.773535 7.477682 -20.66189 -3.89228 -77.46984 24.50634 -5.039047 0 0 -26.17758 3.965462 12.38302 6.768671
41.38551 102.5021 336.5645 2.478941 -7.178371 4.082742 -0.4539495 -24.18284 1.626964 -0 12.67008 -0 -1.021118 -9.644908 -10.04094 -4.596166 24.32426 -11.20945 -0 24.30277 -0 -7.924348 -17.28761 11.25362 -3.245557 -0.2557861 0.6165006 0.9979733 6.269571 -6.940254 3.686217 24.45201 3.939301 0.6577731 -13.24136 8.522914 0.1124551 -8.560315 8.410475 93.17925 24.56041 -22.86338 -0 0 3.996242 -14.81936 12.42743 4.926583 7.39832 -20.72642 -3.597561 -77.68639 24.60389 -5.318179 0 0 -25.89956 4.552791 12.83695 6.043806
